<mxfile host="65bd71144e">
    <diagram id="yFWn54xo6L8_67W6SF1O" name="第 1 页">
        <mxGraphModel dx="2812" dy="948" grid="1" gridSize="10" guides="1" tooltips="1" connect="1" arrows="1" fold="1" page="1" pageScale="1" pageWidth="1169" pageHeight="827" math="0" shadow="0">
            <root>
                <mxCell id="0"/>
                <mxCell id="1" parent="0"/>
                <mxCell id="26" value="" style="rounded=0;whiteSpace=wrap;html=1;fontSize=18;strokeWidth=3;fillColor=none;" parent="1" vertex="1">
                    <mxGeometry x="-100" y="60" width="380" height="420" as="geometry"/>
                </mxCell>
                <mxCell id="6" style="edgeStyle=orthogonalEdgeStyle;rounded=0;orthogonalLoop=1;jettySize=auto;html=1;entryX=0;entryY=0.5;entryDx=0;entryDy=0;fontSize=18;strokeWidth=3;exitX=1;exitY=0.5;exitDx=0;exitDy=0;" parent="1" source="27" target="5" edge="1">
                    <mxGeometry relative="1" as="geometry">
                        <mxPoint x="275" y="230" as="sourcePoint"/>
                    </mxGeometry>
                </mxCell>
                <mxCell id="3" value="Producer" style="text;html=1;strokeColor=none;fillColor=none;align=center;verticalAlign=middle;whiteSpace=wrap;rounded=0;fontSize=26;strokeWidth=3;" parent="1" vertex="1">
                    <mxGeometry x="145" y="110" width="100" height="20" as="geometry"/>
                </mxCell>
                <mxCell id="21" style="edgeStyle=orthogonalEdgeStyle;rounded=0;orthogonalLoop=1;jettySize=auto;html=1;entryX=0.5;entryY=1;entryDx=0;entryDy=0;fontSize=18;strokeWidth=3;" parent="1" source="5" target="20" edge="1">
                    <mxGeometry relative="1" as="geometry"/>
                </mxCell>
                <mxCell id="39" style="edgeStyle=orthogonalEdgeStyle;rounded=0;orthogonalLoop=1;jettySize=auto;html=1;entryX=0.5;entryY=1;entryDx=0;entryDy=0;fontSize=26;strokeWidth=3;" edge="1" parent="1" source="5" target="35">
                    <mxGeometry relative="1" as="geometry">
                        <Array as="points">
                            <mxPoint x="710" y="270"/>
                            <mxPoint x="975" y="270"/>
                        </Array>
                    </mxGeometry>
                </mxCell>
                <mxCell id="5" value="webserver" style="rounded=0;whiteSpace=wrap;html=1;fontSize=26;strokeWidth=3;fillColor=none;" parent="1" vertex="1">
                    <mxGeometry x="600" y="350" width="220" height="140" as="geometry"/>
                </mxCell>
                <mxCell id="8" value="http://localhost:8050/image" style="text;html=1;strokeColor=none;fillColor=none;align=center;verticalAlign=middle;whiteSpace=wrap;rounded=0;fontSize=18;strokeWidth=3;" parent="1" vertex="1">
                    <mxGeometry x="350" y="380" width="160" height="20" as="geometry"/>
                </mxCell>
                <mxCell id="28" style="edgeStyle=orthogonalEdgeStyle;rounded=0;orthogonalLoop=1;jettySize=auto;html=1;fontSize=18;strokeWidth=3;" edge="1" parent="1" source="10" target="12">
                    <mxGeometry relative="1" as="geometry"/>
                </mxCell>
                <mxCell id="10" value="&lt;span style=&quot;font-size: 18px;&quot;&gt;视频输入&lt;/span&gt;" style="rounded=0;whiteSpace=wrap;html=1;fontSize=18;strokeWidth=3;fillColor=none;" parent="1" vertex="1">
                    <mxGeometry x="-80" y="80" width="125" height="80" as="geometry"/>
                </mxCell>
                <mxCell id="29" style="edgeStyle=orthogonalEdgeStyle;rounded=0;orthogonalLoop=1;jettySize=auto;html=1;entryX=0.5;entryY=0;entryDx=0;entryDy=0;fontSize=18;strokeWidth=3;" edge="1" parent="1" source="12" target="13">
                    <mxGeometry relative="1" as="geometry"/>
                </mxCell>
                <mxCell id="12" value="&lt;span style=&quot;font-size: 18px;&quot;&gt;获取&lt;br style=&quot;font-size: 18px;&quot;&gt;Frame&lt;br style=&quot;font-size: 18px;&quot;&gt;&lt;/span&gt;" style="rounded=0;whiteSpace=wrap;html=1;fontSize=18;strokeWidth=3;fillColor=none;" parent="1" vertex="1">
                    <mxGeometry x="-82.5" y="230" width="130" height="80" as="geometry"/>
                </mxCell>
                <mxCell id="30" style="edgeStyle=orthogonalEdgeStyle;rounded=0;orthogonalLoop=1;jettySize=auto;html=1;entryX=0;entryY=0.5;entryDx=0;entryDy=0;fontSize=18;strokeWidth=3;" edge="1" parent="1" source="13" target="27">
                    <mxGeometry relative="1" as="geometry"/>
                </mxCell>
                <mxCell id="13" value="&lt;span style=&quot;font-size: 18px;&quot;&gt;图像处理&lt;br style=&quot;font-size: 18px;&quot;&gt;&lt;/span&gt;" style="rounded=0;whiteSpace=wrap;html=1;fontSize=18;strokeWidth=3;fillColor=none;" parent="1" vertex="1">
                    <mxGeometry x="-82.5" y="380" width="130" height="80" as="geometry"/>
                </mxCell>
                <mxCell id="20" value="浏览器" style="rounded=0;whiteSpace=wrap;html=1;fontSize=18;strokeWidth=3;fillColor=none;" parent="1" vertex="1">
                    <mxGeometry x="615" y="60" width="190" height="120" as="geometry"/>
                </mxCell>
                <mxCell id="24" value="websocket推送" style="text;html=1;strokeColor=none;fillColor=none;align=center;verticalAlign=middle;whiteSpace=wrap;rounded=0;fontSize=18;strokeWidth=3;" parent="1" vertex="1">
                    <mxGeometry x="563" y="290" width="125" height="20" as="geometry"/>
                </mxCell>
                <mxCell id="31" style="edgeStyle=orthogonalEdgeStyle;rounded=0;orthogonalLoop=1;jettySize=auto;html=1;entryX=1;entryY=0.5;entryDx=0;entryDy=0;fontSize=26;strokeWidth=3;" edge="1" parent="1" source="27" target="12">
                    <mxGeometry relative="1" as="geometry">
                        <Array as="points">
                            <mxPoint x="200" y="270"/>
                        </Array>
                    </mxGeometry>
                </mxCell>
                <mxCell id="27" value="&lt;span style=&quot;font-size: 18px;&quot;&gt;jpg压缩&lt;/span&gt;" style="rounded=0;whiteSpace=wrap;html=1;fontSize=18;strokeWidth=3;fillColor=none;" vertex="1" parent="1">
                    <mxGeometry x="130" y="380" width="130" height="80" as="geometry"/>
                </mxCell>
                <mxCell id="34" value="浏览器" style="rounded=0;whiteSpace=wrap;html=1;fontSize=18;strokeWidth=3;fillColor=none;" vertex="1" parent="1">
                    <mxGeometry x="360" y="60" width="190" height="120" as="geometry"/>
                </mxCell>
                <mxCell id="35" value="浏览器" style="rounded=0;whiteSpace=wrap;html=1;fontSize=18;strokeWidth=3;fillColor=none;" vertex="1" parent="1">
                    <mxGeometry x="880" y="60" width="190" height="120" as="geometry"/>
                </mxCell>
                <mxCell id="36" style="edgeStyle=orthogonalEdgeStyle;rounded=0;orthogonalLoop=1;jettySize=auto;html=1;entryX=0.5;entryY=1;entryDx=0;entryDy=0;fontSize=18;strokeWidth=3;" edge="1" parent="1" target="34">
                    <mxGeometry relative="1" as="geometry">
                        <mxPoint x="710" y="350" as="sourcePoint"/>
                        <mxPoint x="720" y="190.00000000000023" as="targetPoint"/>
                        <Array as="points">
                            <mxPoint x="710" y="270"/>
                            <mxPoint x="455" y="270"/>
                        </Array>
                    </mxGeometry>
                </mxCell>
            </root>
        </mxGraphModel>
    </diagram>
</mxfile>